<svg xmlns="http://www.w3.org/2000/svg" viewBox="0 0 80 80">
    <title>Move element down</title>
    <path id="Icon_ionic-md-arrow-round-down" data-name="Icon ionic-md-arrow-round-down" d="M8.589,52.191l32.294,31.4a7.576,7.576,0,0,0,5.4,2.046h.1a7.576,7.576,0,0,0,5.4-2.046l32.294-31.4a6.466,6.466,0,0,0,0-9.821,8.325,8.325,0,0,0-10.893,0L54.042,61.239V12.589c0-3.842-3.446-6.957-7.712-6.957-4.338,0-7.712,3.115-7.712,6.957v48.65L19.482,42.37a8.325,8.325,0,0,0-10.893,0A6.466,6.466,0,0,0,8.589,52.191Z" transform="translate(-6.33 -5.632)"/>
</svg>