<svg xmlns="http://www.w3.org/2000/svg" viewBox="0 0 80 80">
    <title>Move element up</title>
    <path id="Icon_ionic-md-arrow-round-up" data-name="Icon ionic-md-arrow-round-up" d="M84.071,39.066,51.776,7.671a7.576,7.576,0,0,0-5.4-2.046h-.1a7.576,7.576,0,0,0-5.4,2.046L8.589,39.066a6.466,6.466,0,0,0,0,9.821,8.325,8.325,0,0,0,10.893,0L38.618,30.018v48.65c0,3.842,3.446,6.957,7.712,6.957,4.338,0,7.712-3.115,7.712-6.957V30.018L73.177,48.887a8.325,8.325,0,0,0,10.893,0A6.466,6.466,0,0,0,84.071,39.066Z" transform="translate(-6.33 -5.625)"/>
</svg>