<svg xmlns="http://www.w3.org/2000/svg" viewBox="0 0 80 80">
    <title>Move element right</title>
    <path id="Icon_ionic-md-arrow-round-forward" data-name="Icon ionic-md-arrow-round-forward" d="M52.193,84.071,83.58,51.776a7.577,7.577,0,0,0,2.045-5.4v-.1a7.577,7.577,0,0,0-2.045-5.4L52.193,8.589a6.463,6.463,0,0,0-9.818,0,8.327,8.327,0,0,0,0,10.893L61.239,38.618H12.6c-3.864,0-6.977,3.446-6.977,7.712,0,4.338,3.114,7.712,6.955,7.712H61.216L42.352,73.177a8.327,8.327,0,0,0,0,10.893A6.488,6.488,0,0,0,52.193,84.071Z" transform="translate(-5.625 -6.33)"/>
</svg>